<svg width="12" height="12" viewBox="0 0 12 12" fill="none" xmlns="http://www.w3.org/2000/svg">
<path d="M9.7116 6.85592C9.56009 6.85592 9.41479 6.91614 9.30765 7.02333C9.20052 7.13052 9.14033 7.2759 9.14033 7.42749V7.64468L8.29485 6.79876C7.99632 6.50243 7.59283 6.33615 7.17231 6.33615C6.75178 6.33615 6.34829 6.50243 6.04976 6.79876L5.64987 7.19886L4.23312 5.78138C3.93041 5.49309 3.52849 5.33229 3.11057 5.33229C2.69265 5.33229 2.29073 5.49309 1.98802 5.78138L1.14254 6.6273V3.42654C1.14254 3.27495 1.20273 3.12957 1.30986 3.02238C1.417 2.91519 1.5623 2.85497 1.71381 2.85497H5.71271C5.86422 2.85497 6.00952 2.79475 6.11666 2.68756C6.22379 2.58037 6.28398 2.435 6.28398 2.28341C6.28398 2.13182 6.22379 1.98644 6.11666 1.87925C6.00952 1.77206 5.86422 1.71184 5.71271 1.71184H1.71381C1.25928 1.71184 0.823366 1.8925 0.501964 2.21406C0.180562 2.53563 0 2.97177 0 3.42654V10.2853C0 10.7401 0.180562 11.1762 0.501964 11.4978C0.823366 11.8193 1.25928 12 1.71381 12H8.56906C9.02359 12 9.45951 11.8193 9.78091 11.4978C10.1023 11.1762 10.2829 10.7401 10.2829 10.2853V7.42749C10.2829 7.2759 10.2227 7.13052 10.1156 7.02333C10.0084 6.91614 9.86311 6.85592 9.7116 6.85592ZM1.71381 10.8569C1.5623 10.8569 1.417 10.7967 1.30986 10.6895C1.20273 10.5823 1.14254 10.4369 1.14254 10.2853V8.24482L2.79923 6.58729C2.88315 6.50727 2.99464 6.46263 3.11057 6.46263C3.2265 6.46263 3.33799 6.50727 3.42191 6.58729L5.23284 8.39914L7.68931 10.8569H1.71381ZM9.14033 10.2853C9.13951 10.3947 9.10345 10.501 9.0375 10.5882L6.46107 7.99905L6.86096 7.59895C6.90192 7.55713 6.95081 7.52391 7.00476 7.50122C7.05871 7.47854 7.11664 7.46686 7.17516 7.46686C7.23368 7.46686 7.29162 7.47854 7.34557 7.50122C7.39952 7.52391 7.4484 7.55713 7.48936 7.59895L9.14033 9.26221V10.2853ZM11.831 1.8776L10.1172 0.162904C10.0629 0.110868 9.99881 0.0700783 9.92869 0.042875C9.78961 -0.0142917 9.6336 -0.0142917 9.49452 0.042875C9.4244 0.0700783 9.36033 0.110868 9.306 0.162904L7.59219 1.8776C7.53892 1.93089 7.49667 1.99415 7.46785 2.06378C7.43902 2.13341 7.42418 2.20804 7.42418 2.28341C7.42418 2.43562 7.48462 2.58159 7.59219 2.68922C7.69976 2.79685 7.84566 2.85731 7.99779 2.85731C8.14992 2.85731 8.29582 2.79685 8.40339 2.68922L9.14033 1.94618V5.14123C9.14033 5.29282 9.20052 5.4382 9.30765 5.54539C9.41479 5.65257 9.56009 5.71279 9.7116 5.71279C9.86311 5.71279 10.0084 5.65257 10.1156 5.54539C10.2227 5.4382 10.2829 5.29282 10.2829 5.14123V1.94618L11.0198 2.68922C11.0729 2.74279 11.1361 2.78531 11.2057 2.81433C11.2753 2.84335 11.35 2.85829 11.4254 2.85829C11.5008 2.85829 11.5755 2.84335 11.6451 2.81433C11.7147 2.78531 11.7779 2.74279 11.831 2.68922C11.8846 2.63608 11.9271 2.57287 11.9561 2.50322C11.9851 2.43357 12 2.35886 12 2.28341C12 2.20795 11.9851 2.13325 11.9561 2.0636C11.9271 1.99395 11.8846 1.93073 11.831 1.8776Z" fill="#368FEF"/>
</svg>
