<svg width="249" height="89" viewBox="0 0 249 89" fill="none" xmlns="http://www.w3.org/2000/svg">
<path d="M30.9375 49.8906C30.9375 49.1094 30.9844 48.3281 31.0781 47.5469C31.2031 46.7656 31.3281 46 31.4531 45.25C31.6094 44.4688 31.7344 43.6875 31.8281 42.9062C31.9531 42.0938 32.0156 41.2812 32.0156 40.4688C30.9844 40.4688 30.0938 40.5156 29.3438 40.6094C28.5938 40.7031 27.8594 40.7969 27.1406 40.8906C26.4219 40.9844 25.6562 41.0625 24.8438 41.125C24.0312 41.1562 23.0469 41.1406 21.8906 41.0781C21.0469 42.0156 20.0781 43.0156 18.9844 44.0781C17.9219 45.1406 16.7812 46.125 15.5625 47.0312C14.3438 47.9375 13.0625 48.7031 11.7188 49.3281C10.375 49.9219 9.01562 50.2188 7.64062 50.2188C6.70312 50.2188 5.79688 50.0625 4.92188 49.75C4.07812 49.4375 3.32812 49 2.67188 48.4375C2.01562 47.875 1.5 47.2031 1.125 46.4219C0.75 45.6094 0.5625 44.7188 0.5625 43.75C0.5625 43.25 0.640625 42.875 0.796875 42.625C0.984375 42.3438 1.35938 42.2031 1.92188 42.2031C2.20312 42.2031 2.45312 42.4688 2.67188 43C2.89062 43.5 3.17188 44.0781 3.51562 44.7344C3.89062 45.3594 4.35938 45.9375 4.92188 46.4688C5.48438 46.9688 6.25 47.2188 7.21875 47.2188C8.40625 47.2188 9.5625 47 10.6875 46.5625C11.8438 46.0938 12.9375 45.5156 13.9688 44.8281C15.0312 44.1094 16.0156 43.3125 16.9219 42.4375C17.8594 41.5625 18.7031 40.7031 19.4531 39.8594C19.3594 39.0781 19.0781 38.5 18.6094 38.125C18.1406 37.75 17.6406 37.375 17.1094 37C16.6094 36.625 16.1562 36.125 15.75 35.5C15.3438 34.875 15.1406 33.8906 15.1406 32.5469C15.1406 30.6406 15.7188 29.1562 16.875 28.0938C18.0312 27 19.6094 26.4531 21.6094 26.4531C22.2031 26.4531 22.7812 26.5156 23.3438 26.6406C23.9375 26.7656 24.5312 26.9219 25.125 27.1094C25.7188 27.2656 26.2969 27.4062 26.8594 27.5312C27.4531 27.6562 28.0469 27.7188 28.6406 27.7188C29.0156 27.7188 29.3125 27.6719 29.5312 27.5781C29.7812 27.4844 30 27.3438 30.1875 27.1562C30.375 26.9688 30.5781 26.7188 30.7969 26.4062C31.0156 26.0938 31.2969 25.7188 31.6406 25.2812C31.8281 25.0312 32.1094 24.6406 32.4844 24.1094C32.8906 23.5469 33.3281 22.9375 33.7969 22.2812C34.2656 21.5938 34.7656 20.875 35.2969 20.125C35.8281 19.375 36.3281 18.6562 36.7969 17.9688C37.2656 17.2812 37.6875 16.6719 38.0625 16.1406C38.4375 15.6094 38.7031 15.2031 38.8594 14.9219C39.2031 14.6406 39.5156 14.4688 39.7969 14.4062C40.0781 14.3125 40.4062 14.2656 40.7812 14.2656C41.1562 14.2656 41.4375 14.4062 41.625 14.6875C41.8125 14.9375 41.9219 15.25 41.9531 15.625C42.0156 16 42.0312 16.3906 42 16.7969C42 17.1719 42 17.4688 42 17.6875C42 17.7812 42 17.9375 42 18.1562C42 18.3438 41.9844 18.5469 41.9531 18.7656C41.9531 18.9844 41.9531 19.2031 41.9531 19.4219C41.9531 19.6094 41.9531 19.7344 41.9531 19.7969C41.8594 20.1094 41.7031 20.5781 41.4844 21.2031C41.2969 21.8281 41.0781 22.5469 40.8281 23.3594C40.5781 24.1406 40.3125 24.9688 40.0312 25.8438C39.7812 26.7188 39.5312 27.5625 39.2812 28.375C39.0625 29.1875 38.8594 29.9062 38.6719 30.5312C38.4844 31.1562 38.3594 31.625 38.2969 31.9375C38.2656 32.0938 38.2188 32.3438 38.1562 32.6875C38.0938 33.0312 38.0312 33.4062 37.9688 33.8125C37.9062 34.1875 37.8438 34.5469 37.7812 34.8906C37.7188 35.2344 37.6875 35.4688 37.6875 35.5938C37.9688 35.6562 38.25 35.75 38.5312 35.875C38.8125 36 38.9531 36.2031 38.9531 36.4844C38.9531 36.7969 38.8281 37.0469 38.5781 37.2344C38.3594 37.4219 38.0938 37.5938 37.7812 37.75C37.4688 37.9062 37.1719 38.0938 36.8906 38.3125C36.6406 38.5312 36.5 38.8438 36.4688 39.25C36.4062 39.625 36.2969 40.3125 36.1406 41.3125C35.9844 42.2812 35.7969 43.3281 35.5781 44.4531C35.3906 45.5469 35.2031 46.5781 35.0156 47.5469C34.8594 48.5156 34.7344 49.1875 34.6406 49.5625C34.6094 49.6562 34.5469 49.8281 34.4531 50.0781C34.3594 50.3281 34.25 50.5781 34.125 50.8281C34 51.0781 33.875 51.3125 33.75 51.5312C33.625 51.75 33.5312 51.9062 33.4688 52C32.7188 51.8438 32.1094 51.6562 31.6406 51.4375C31.1719 51.1875 30.9375 50.6719 30.9375 49.8906ZM30.1406 31.8906C29.7656 31.8906 29.2344 32.1562 28.5469 32.6875C27.8906 33.2188 27.2344 33.8438 26.5781 34.5625C25.9219 35.25 25.3438 35.9531 24.8438 36.6719C24.3438 37.3594 24.0938 37.875 24.0938 38.2188C24.2812 38.2188 24.6406 38.2188 25.1719 38.2188C25.7344 38.1875 26.3125 38.1719 26.9062 38.1719C27.5312 38.1406 28.1094 38.1094 28.6406 38.0781C29.2031 38.0469 29.5938 38.0312 29.8125 38.0312C29.9375 38.0312 30.125 38 30.375 37.9375C30.6562 37.875 30.9219 37.8125 31.1719 37.75C31.4219 37.6875 31.6406 37.625 31.8281 37.5625C32.0469 37.5 32.1719 37.4531 32.2031 37.4219C32.2344 37.4219 32.25 37.3281 32.25 37.1406C32.25 36.9219 32.25 36.75 32.25 36.625C32.25 36.375 32.2031 35.9844 32.1094 35.4531C32.0469 34.9219 31.9219 34.3906 31.7344 33.8594C31.5781 33.3281 31.3594 32.875 31.0781 32.5C30.8281 32.0938 30.5156 31.8906 30.1406 31.8906ZM16.9688 31.9375C16.9688 32.375 17.125 32.875 17.4375 33.4375C17.75 34 18.1406 34.5312 18.6094 35.0312C19.0781 35.5312 19.5781 35.9531 20.1094 36.2969C20.6406 36.6406 21.1406 36.8125 21.6094 36.8125C22.0469 36.8125 22.5625 36.5469 23.1562 36.0156C23.75 35.4844 24.3125 34.875 24.8438 34.1875C25.4062 33.4688 25.875 32.7812 26.25 32.125C26.625 31.4688 26.8125 31.0156 26.8125 30.7656C26.8125 30.2344 26.625 29.8438 26.25 29.5938C25.9062 29.3125 25.4844 29.125 24.9844 29.0312C24.5156 28.9062 24.0156 28.8438 23.4844 28.8438C22.9531 28.8438 22.5156 28.8438 22.1719 28.8438C21.7344 28.8438 21.2031 28.8906 20.5781 28.9844C19.9844 29.0469 19.4219 29.1875 18.8906 29.4062C18.3594 29.625 17.9062 29.9375 17.5312 30.3438C17.1562 30.75 16.9688 31.2812 16.9688 31.9375ZM31.0312 29.5469C31.7188 30.3594 32.3594 31.2344 32.9531 32.1719C33.5469 33.1094 34.1094 34.0625 34.6406 35.0312L38.8125 20.0312L31.0312 29.5469ZM57.75 52.0469C56.9688 52.1719 56.25 52.0469 55.5938 51.6719C54.9688 51.2656 54.4688 50.75 54.0938 50.125C53.7188 49.4688 53.5 48.7656 53.4375 48.0156C53.375 47.2344 53.5312 46.5312 53.9062 45.9062C55.2812 44.125 56.2188 42.7188 56.7188 41.6875C57.2188 40.625 57.3906 39.8906 57.2344 39.4844C57.1094 39.0469 56.7188 38.875 56.0625 38.9688C55.4375 39.0312 54.6719 39.3125 53.7656 39.8125C52.8594 40.2812 51.875 40.9062 50.8125 41.6875C49.7812 42.4688 48.8125 43.3281 47.9062 44.2656C47 45.2031 46.2031 46.1875 45.5156 47.2188C44.8594 48.2188 44.4375 49.2031 44.25 50.1719C43.9375 50.3594 43.6719 50.5156 43.4531 50.6406C43.2344 50.7344 42.9844 50.7812 42.7031 50.7812C42.2344 50.7812 41.9531 50.625 41.8594 50.3125C41.7656 50 41.7188 49.6719 41.7188 49.3281C41.7188 48.5469 41.9531 47.75 42.4219 46.9375C42.9219 46.0938 43.4844 45.3125 44.1094 44.5938C44.7656 43.8438 45.3906 43.1719 45.9844 42.5781C46.5781 41.9531 47 41.4531 47.25 41.0781C48.0312 39.7969 48.8125 38.4219 49.5938 36.9531C50.375 35.4531 51.1562 33.9375 51.9375 32.4062C52.7188 30.8438 53.5156 29.3125 54.3281 27.8125C55.1719 26.2812 56.0469 24.8281 56.9531 23.4531C57.1094 23.2031 57.2344 23.0312 57.3281 22.9375C57.4531 22.8438 57.625 22.7969 57.8438 22.7969C58.0938 22.7969 58.2812 22.8438 58.4062 22.9375C58.5312 23.0312 58.6562 23.2031 58.7812 23.4531C58.7812 23.5781 58.75 23.7812 58.6875 24.0625C58.6562 24.3438 58.6094 24.6562 58.5469 25C58.5156 25.3125 58.4531 25.6094 58.3594 25.8906C58.2969 26.1719 58.25 26.3594 58.2188 26.4531C58.0312 26.8281 57.7188 27.4844 57.2812 28.4219C56.8438 29.3594 56.3594 30.3594 55.8281 31.4219C55.3281 32.4844 54.8438 33.5312 54.375 34.5625C53.9062 35.5625 53.5625 36.3125 53.3438 36.8125C53.8125 36.5 54.2344 36.2656 54.6094 36.1094C54.9844 35.9219 55.3438 35.7969 55.6875 35.7344C56.0625 35.6406 56.4375 35.5938 56.8125 35.5938C57.2188 35.5625 57.6562 35.5469 58.125 35.5469C59.25 35.8281 59.9844 36.25 60.3281 36.8125C60.7031 37.375 60.8125 38.0312 60.6562 38.7812C60.5312 39.5 60.2344 40.2969 59.7656 41.1719C59.2969 42.0469 58.7969 42.9375 58.2656 43.8438C57.7656 44.7188 57.3125 45.5781 56.9062 46.4219C56.5 47.2344 56.3125 47.9844 56.3438 48.6719C56.3438 48.9531 56.4062 49.1562 56.5312 49.2812C56.6562 49.4062 56.8125 49.5 57 49.5625C57.1875 49.625 57.3906 49.6562 57.6094 49.6562C57.8281 49.6562 58.0312 49.6562 58.2188 49.6562C58.875 49.6562 59.5 49.5625 60.0938 49.375C60.7188 49.1562 61.3281 48.9219 61.9219 48.6719C62.5156 48.4219 63.1094 48.2031 63.7031 48.0156C64.3281 47.7969 64.9688 47.6875 65.625 47.6875C65.625 48.2812 65.3281 48.8438 64.7344 49.375C64.1406 49.9062 63.4219 50.375 62.5781 50.7812C61.7656 51.1562 60.9062 51.4688 60 51.7188C59.0938 51.9375 58.3438 52.0469 57.75 52.0469ZM64.1719 48.0625C64.1719 47.9375 64.1719 47.6875 64.1719 47.3125C64.2031 46.9062 64.2188 46.6406 64.2188 46.5156C65.2188 44.2344 66.5 42.125 68.0625 40.1875C69.625 38.25 71.3906 36.5312 73.3594 35.0312C73.4219 35.0312 73.5156 35.0156 73.6406 34.9844C73.7969 34.9219 73.9062 34.8906 73.9688 34.8906C74.8125 34.8906 75.5 35.0781 76.0312 35.4531C76.5938 35.7969 77.0312 36.2656 77.3438 36.8594C77.6875 37.4219 77.9219 38.0625 78.0469 38.7812C78.1719 39.4688 78.2344 40.1406 78.2344 40.7969C78.2344 42.0156 77.9531 43.2969 77.3906 44.6406C76.8281 45.9531 76.0625 47.1719 75.0938 48.2969C74.1562 49.3906 73.0781 50.2969 71.8594 51.0156C70.6406 51.7031 69.375 52.0469 68.0625 52.0469C66.75 52.0469 65.7656 51.7031 65.1094 51.0156C64.4844 50.2969 64.1719 49.3125 64.1719 48.0625ZM67.8281 47.5C67.8281 47.8438 67.9688 48.0781 68.25 48.2031C68.5312 48.3281 68.8125 48.3906 69.0938 48.3906C69.875 48.3906 70.625 48.1875 71.3438 47.7812C72.0938 47.3438 72.75 46.8125 73.3125 46.1875C73.9062 45.5312 74.375 44.8125 74.7188 44.0312C75.0625 43.25 75.2344 42.5 75.2344 41.7812C75.2344 41.4375 75.2031 41.0625 75.1406 40.6562C75.1094 40.2188 75.0156 39.8438 74.8594 39.5312C74.7031 39.1875 74.4531 38.9219 74.1094 38.7344C73.7969 38.5469 73.3438 38.5156 72.75 38.6406C72.3125 38.7344 71.8125 39.1406 71.25 39.8594C70.6875 40.5781 70.1406 41.4219 69.6094 42.3906C69.1094 43.3281 68.6875 44.2812 68.3438 45.25C68 46.1875 67.8281 46.9375 67.8281 47.5ZM76.875 66.1562C77.875 64.5312 79.0312 63.0781 80.3438 61.7969C81.6562 60.5469 83 59.3594 84.375 58.2344C85.7812 57.1094 87.1719 56.0156 88.5469 54.9531C89.9219 53.8906 91.1875 52.75 92.3438 51.5312C93.5312 50.3125 94.5469 48.9688 95.3906 47.5C96.2344 46 96.8125 44.2656 97.125 42.2969C97.125 42.2344 97.1094 42.1406 97.0781 42.0156C97.0781 41.8594 97.0781 41.75 97.0781 41.6875C96.3594 42.5312 95.4844 43.4844 94.4531 44.5469C93.4531 45.6094 92.3594 46.6094 91.1719 47.5469C90.0156 48.4844 88.7969 49.2656 87.5156 49.8906C86.2344 50.5156 84.9844 50.8281 83.7656 50.8281C83.4531 50.8281 83.0469 50.8125 82.5469 50.7812C82.0781 50.7188 81.6094 50.6094 81.1406 50.4531C80.6719 50.2969 80.2656 50.0781 79.9219 49.7969C79.5781 49.5156 79.4062 49.1406 79.4062 48.6719C79.4062 48.2656 79.5156 47.6406 79.7344 46.7969C79.9531 45.9531 80.25 45.0156 80.625 43.9844C81 42.9531 81.4219 41.9062 81.8906 40.8438C82.3594 39.7812 82.8594 38.8125 83.3906 37.9375C83.9219 37.0625 84.4375 36.3438 84.9375 35.7812C85.4688 35.2188 85.9531 34.9375 86.3906 34.9375C86.8281 34.9375 87.2031 35.0312 87.5156 35.2188C87.8281 35.4062 87.9844 35.7188 87.9844 36.1562C87.9844 36.9375 87.7031 37.7188 87.1406 38.5C86.5781 39.2812 85.9688 40.125 85.3125 41.0312C84.6562 41.9062 84.0469 42.8594 83.4844 43.8906C82.9219 44.9219 82.6406 46.0938 82.6406 47.4062C84.7031 47.4062 86.5625 46.9844 88.2188 46.1406C89.875 45.2656 91.375 44.1875 92.7188 42.9062C94.0625 41.625 95.25 40.2344 96.2812 38.7344C97.3125 37.2344 98.2188 35.8438 99 34.5625C99.8125 33.2812 100.5 32.2188 101.062 31.375C101.656 30.5 102.156 30.0625 102.562 30.0625C103.156 30.0625 103.5 30.25 103.594 30.625C103.719 30.9688 103.781 31.4062 103.781 31.9375C103.5 32.9062 103.109 34.0469 102.609 35.3594C102.109 36.6406 101.594 38 101.062 39.4375C100.562 40.8438 100.094 42.25 99.6562 43.6562C99.25 45.0625 98.9844 46.3438 98.8594 47.5C98.8594 47.5312 98.8594 47.5781 98.8594 47.6406C98.8906 47.7031 98.9062 47.75 98.9062 47.7812C99.4688 47.5938 100 47.2656 100.5 46.7969C101 46.3281 101.484 45.8594 101.953 45.3906C102.453 44.8906 102.953 44.4531 103.453 44.0781C103.953 43.6719 104.469 43.4688 105 43.4688C105.031 43.4688 105.141 43.6875 105.328 44.125C105.547 44.5625 105.547 45.0938 105.328 45.7188C105.047 45.9375 104.531 46.3125 103.781 46.8438C103.062 47.375 102.297 47.9375 101.484 48.5312C100.672 49.0938 99.9062 49.6562 99.1875 50.2188C98.4688 50.75 97.9688 51.1562 97.6875 51.4375C97.25 51.875 96.7969 52.5 96.3281 53.3125C95.8594 54.125 95.3906 55.0312 94.9219 56.0312C94.4531 57.0625 93.9844 58.1406 93.5156 59.2656C93.0781 60.3906 92.6406 61.4844 92.2031 62.5469C91.7656 63.6406 91.3281 64.6406 90.8906 65.5469C90.4844 66.4844 90.1094 67.25 89.7656 67.8438C89.6094 68.0938 89.2812 68.5781 88.7812 69.2969C88.3125 70.0469 87.7812 70.8438 87.1875 71.6875C86.625 72.5312 86.0625 73.3281 85.5 74.0781C84.9688 74.8594 84.5625 75.4062 84.2812 75.7188C84.1562 75.875 83.8125 76.2344 83.25 76.7969C82.6875 77.3906 82.0469 78.0312 81.3281 78.7188C80.6406 79.4375 79.9531 80.1406 79.2656 80.8281C78.5469 81.5156 78 82.0312 77.625 82.375C77.25 82.5938 76.75 82.8594 76.125 83.1719C75.5 83.5156 74.8594 83.7969 74.2031 84.0156C73.5156 84.2344 72.8594 84.375 72.2344 84.4375C71.5781 84.5 71.0469 84.3594 70.6406 84.0156C70.2344 83.7031 70 83.1562 69.9375 82.375C69.8438 81.625 70.0156 80.5469 70.4531 79.1406C70.8594 77.7656 71.5781 76.0156 72.6094 73.8906C73.6406 71.7656 75.0625 69.1875 76.875 66.1562ZM91.5938 56.0781C91.5312 56.0781 91.4219 56.0938 91.2656 56.125C91.1406 56.1875 91.0469 56.2344 90.9844 56.2656C90.9219 56.3281 90.7812 56.4375 90.5625 56.5938C90.3438 56.75 90.0938 56.9219 89.8125 57.1094C89.5625 57.2969 89.3125 57.4844 89.0625 57.6719C88.8438 57.8594 88.6875 58 88.5938 58.0938C87.7188 58.7188 86.7188 59.5938 85.5938 60.7188C84.4688 61.875 83.2969 63.1406 82.0781 64.5156C80.8906 65.9219 79.7188 67.3906 78.5625 68.9219C77.4062 70.4844 76.375 71.9688 75.4688 73.375C74.5312 74.8125 73.7812 76.125 73.2188 77.3125C72.6562 78.5 72.3594 79.4531 72.3281 80.1719C72.2969 80.8906 72.5938 81.3125 73.2188 81.4375C73.8438 81.5625 74.9062 81.2656 76.4062 80.5469C76.7188 80.2656 77.1719 79.8438 77.7656 79.2812C78.3281 78.75 78.8906 78.1875 79.4531 77.5938C80.0469 77.0312 80.5781 76.5 81.0469 76C81.5156 75.5312 81.7969 75.2344 81.8906 75.1094C82.0469 74.8906 82.2969 74.5469 82.6406 74.0781C82.9844 73.6094 83.3594 73.0781 83.7656 72.4844C84.1719 71.8906 84.5938 71.2656 85.0312 70.6094C85.4688 69.9531 85.875 69.3125 86.25 68.6875C86.6562 68.0938 87 67.5625 87.2812 67.0938C87.5938 66.625 87.8125 66.2656 87.9375 66.0156C88.2188 65.5156 88.5625 64.7969 88.9688 63.8594C89.4062 62.9531 89.8125 62 90.1875 61C90.5625 60.0312 90.8906 59.0938 91.1719 58.1875C91.4531 57.2812 91.5938 56.5781 91.5938 56.0781ZM124.312 42.3906C123.875 42.3906 123.438 42.6406 123 43.1406C122.562 43.6094 122.078 44.2031 121.547 44.9219C121.047 45.6406 120.484 46.4375 119.859 47.3125C119.234 48.1562 118.516 48.9375 117.703 49.6562C116.922 50.375 116.031 50.9844 115.031 51.4844C114.031 51.9531 112.891 52.1875 111.609 52.1875C111.016 52.1875 110.328 52.1562 109.547 52.0938C108.797 52.0625 108.078 51.9531 107.391 51.7656C106.734 51.5469 106.172 51.2188 105.703 50.7812C105.266 50.3125 105.047 49.6719 105.047 48.8594C105.047 47.7656 105.375 46.7812 106.031 45.9062C106.719 45 107.594 44.1875 108.656 43.4688C109.75 42.75 110.953 42.125 112.266 41.5938C113.609 41.0625 114.938 40.6094 116.25 40.2344C117.562 39.8594 118.797 39.5625 119.953 39.3438C121.109 39.0938 122.047 38.9062 122.766 38.7812L131.906 24.2031C132.312 23.5469 132.859 22.8594 133.547 22.1406C134.234 21.4219 134.984 20.7656 135.797 20.1719C136.609 19.5469 137.453 19.0312 138.328 18.625C139.234 18.2188 140.094 18.0156 140.906 18.0156C141.062 18.0156 141.344 18.0469 141.75 18.1094C142.188 18.1719 142.609 18.3906 143.016 18.7656C143.453 19.1406 143.828 19.75 144.141 20.5938C144.484 21.4375 144.656 22.6406 144.656 24.2031C144.438 24.2656 144.234 24.375 144.047 24.5312C143.859 24.6562 143.641 24.7969 143.391 24.9531C143.172 25.0781 142.906 25.2031 142.594 25.3281C142.312 25.4219 141.984 25.4688 141.609 25.4688C142.109 24.4375 142.281 23.625 142.125 23.0312C142 22.4062 141.688 21.9844 141.188 21.7656C140.688 21.5469 140.062 21.5 139.312 21.625C138.562 21.75 137.812 22.0156 137.062 22.4219C136.312 22.7969 135.625 23.2969 135 23.9219C134.406 24.5469 133.984 25.25 133.734 26.0312L125.812 39.4375V40.0469C127.094 40.9531 128.062 41.9375 128.719 43C129.406 44.0625 129.922 45.1406 130.266 46.2344C130.641 47.2969 130.922 48.3438 131.109 49.375C131.297 50.4062 131.531 51.3281 131.812 52.1406C132.125 52.9844 132.547 53.6719 133.078 54.2031C133.641 54.7656 134.469 55.1094 135.562 55.2344C135.562 55.2656 135.562 55.3125 135.562 55.375C135.594 55.4375 135.609 55.4844 135.609 55.5156C135.609 55.8906 135.453 56.1719 135.141 56.3594C134.859 56.5781 134.516 56.7344 134.109 56.8281C133.703 56.9531 133.281 57.0312 132.844 57.0625C132.438 57.0938 132.109 57.1094 131.859 57.1094C131.203 56.5469 130.656 55.7969 130.219 54.8594C129.812 53.9219 129.453 52.9219 129.141 51.8594C128.828 50.7656 128.531 49.6719 128.25 48.5781C128 47.4531 127.703 46.4531 127.359 45.5781C127.016 44.6719 126.609 43.9219 126.141 43.3281C125.672 42.7344 125.062 42.4219 124.312 42.3906ZM107.578 48.2031C107.578 48.5781 107.703 48.875 107.953 49.0938C108.234 49.3125 108.562 49.4688 108.938 49.5625C109.312 49.6562 109.688 49.7188 110.062 49.75C110.469 49.7812 110.781 49.7969 111 49.7969C111.844 49.7969 112.781 49.5781 113.812 49.1406C114.844 48.6719 115.797 48.0781 116.672 47.3594C117.578 46.6406 118.328 45.8438 118.922 44.9688C119.547 44.0625 119.859 43.1562 119.859 42.25C117.422 42.25 115.141 42.6875 113.016 43.5625C110.922 44.4062 109.125 45.8594 107.625 47.9219C107.625 47.9531 107.609 48 107.578 48.0625C107.578 48.125 107.578 48.1719 107.578 48.2031ZM137.578 48.0625C137.578 47.9375 137.578 47.6875 137.578 47.3125C137.609 46.9062 137.625 46.6406 137.625 46.5156C138.625 44.2344 139.906 42.125 141.469 40.1875C143.031 38.25 144.797 36.5312 146.766 35.0312C146.828 35.0312 146.922 35.0156 147.047 34.9844C147.203 34.9219 147.312 34.8906 147.375 34.8906C148.219 34.8906 148.906 35.0781 149.438 35.4531C150 35.7969 150.438 36.2656 150.75 36.8594C151.094 37.4219 151.328 38.0625 151.453 38.7812C151.578 39.4688 151.641 40.1406 151.641 40.7969C151.641 42.0156 151.359 43.2969 150.797 44.6406C150.234 45.9531 149.469 47.1719 148.5 48.2969C147.562 49.3906 146.484 50.2969 145.266 51.0156C144.047 51.7031 142.781 52.0469 141.469 52.0469C140.156 52.0469 139.172 51.7031 138.516 51.0156C137.891 50.2969 137.578 49.3125 137.578 48.0625ZM141.234 47.5C141.234 47.8438 141.375 48.0781 141.656 48.2031C141.938 48.3281 142.219 48.3906 142.5 48.3906C143.281 48.3906 144.031 48.1875 144.75 47.7812C145.5 47.3438 146.156 46.8125 146.719 46.1875C147.312 45.5312 147.781 44.8125 148.125 44.0312C148.469 43.25 148.641 42.5 148.641 41.7812C148.641 41.4375 148.609 41.0625 148.547 40.6562C148.516 40.2188 148.422 39.8438 148.266 39.5312C148.109 39.1875 147.859 38.9219 147.516 38.7344C147.203 38.5469 146.75 38.5156 146.156 38.6406C145.719 38.7344 145.219 39.1406 144.656 39.8594C144.094 40.5781 143.547 41.4219 143.016 42.3906C142.516 43.3281 142.094 44.2812 141.75 45.25C141.406 46.1875 141.234 46.9375 141.234 47.5ZM153.375 49.0469C153.375 48.9531 153.375 48.8281 153.375 48.6719C153.406 48.4844 153.422 48.375 153.422 48.3438C153.516 47.4062 153.625 46.2188 153.75 44.7812C153.875 43.3125 154 41.9062 154.125 40.5625C154.281 39.2188 154.406 38.0625 154.5 37.0938C154.594 36.0938 154.641 35.5938 154.641 35.5938L155.906 34.375C156.438 34.5312 156.828 34.75 157.078 35.0312C157.328 35.2812 157.5 35.5625 157.594 35.875C157.688 36.1875 157.734 36.5312 157.734 36.9062C157.734 37.2812 157.734 37.6562 157.734 38.0312C157.734 39.3438 157.609 40.625 157.359 41.875C157.141 43.0938 157.031 44.3438 157.031 45.625C157.031 45.6875 157.031 45.8438 157.031 46.0938C157.062 46.3125 157.078 46.4531 157.078 46.5156L168.609 34.375C168.641 34.3438 168.719 34.3281 168.844 34.3281C169 34.3281 169.109 34.3281 169.172 34.3281C169.484 34.3281 169.781 34.3906 170.062 34.5156C170.344 34.6406 170.484 34.9062 170.484 35.3125C170.484 35.3438 170.469 35.375 170.438 35.4062C170.438 35.4062 170.438 35.4219 170.438 35.4531V35.5938C170.281 35.8438 170 36.25 169.594 36.8125C169.219 37.375 168.797 37.9844 168.328 38.6406C167.891 39.2969 167.469 39.9219 167.062 40.5156C166.656 41.0781 166.375 41.4688 166.219 41.6875C165.688 42.3438 165.062 43.125 164.344 44.0312C163.656 44.9375 162.906 45.8594 162.094 46.7969C161.312 47.7031 160.484 48.5781 159.609 49.4219C158.766 50.2344 157.922 50.8906 157.078 51.3906C156.922 51.4844 156.688 51.6094 156.375 51.7656C156.094 51.9219 155.938 52 155.906 52C155.562 52 155.234 51.9062 154.922 51.7188C154.641 51.5 154.375 51.2344 154.125 50.9219C153.906 50.6094 153.719 50.2969 153.562 49.9844C153.438 49.6406 153.375 49.3281 153.375 49.0469ZM172.359 49.5625C171.828 48.375 171.594 47.2188 171.656 46.0938C171.719 44.9375 171.969 43.8594 172.406 42.8594C172.875 41.8281 173.469 40.9062 174.188 40.0938C174.938 39.25 175.734 38.5312 176.578 37.9375C177.422 37.3125 178.266 36.8438 179.109 36.5312C179.984 36.2188 180.75 36.0938 181.406 36.1562C182.062 36.1875 182.578 36.4219 182.953 36.8594C183.328 37.2969 183.453 37.9688 183.328 38.875C183.328 40.0938 182.938 41.1562 182.156 42.0625C181.406 42.9688 180.562 43.7812 179.625 44.5C178.719 45.2188 177.875 45.875 177.094 46.4688C176.344 47.0312 175.969 47.5625 175.969 48.0625C175.969 48.3438 176.125 48.5625 176.438 48.7188C176.781 48.875 177.172 49 177.609 49.0938C178.047 49.1562 178.484 49.2031 178.922 49.2344C179.359 49.2656 179.672 49.2969 179.859 49.3281C182.797 48.7031 185 48.3281 186.469 48.2031C187.938 48.0469 188.859 48.0625 189.234 48.25C189.609 48.4062 189.531 48.6719 189 49.0469C188.5 49.3906 187.719 49.7656 186.656 50.1719C185.594 50.5469 184.359 50.8906 182.953 51.2031C181.547 51.5156 180.156 51.7031 178.781 51.7656C177.406 51.7969 176.125 51.6562 174.938 51.3438C173.781 51.0312 172.922 50.4375 172.359 49.5625ZM180.562 38.875C179.938 38.875 179.344 39.0469 178.781 39.3906C178.219 39.7344 177.703 40.1719 177.234 40.7031C176.797 41.2031 176.422 41.7656 176.109 42.3906C175.797 42.9844 175.562 43.5469 175.406 44.0781C175.469 44.1094 175.516 44.125 175.547 44.125H175.688C176.125 44.125 176.625 43.9375 177.188 43.5625C177.75 43.1875 178.281 42.7344 178.781 42.2031C179.281 41.6406 179.703 41.0625 180.047 40.4688C180.391 39.875 180.562 39.3438 180.562 38.875Z" fill="white"/>
<path d="M216.363 46.7988C216.019 45.8768 215.692 44.8375 215.25 43.8526C214.456 42.0837 213.593 40.3484 212.761 38.5981C212.631 38.325 212.5 38.0511 212.392 37.7686C211.87 36.4091 212.361 35.6876 213.769 35.5754C216.765 35.3371 219.757 35.0439 222.75 34.7731C223.835 34.6749 224.919 34.5752 226.113 34.4663C226.132 34.0814 226.166 33.7296 226.163 33.3784C226.114 28.6184 226.062 23.8587 226.008 19.0992C226.005 18.855 226.007 18.6109 226.009 18.366C226.014 17.8243 226.102 17.325 226.658 17.0829C227.183 16.8536 227.568 17.1379 227.927 17.4748C230.288 19.686 232.648 21.8987 235.007 24.1127C235.794 24.8488 236.587 25.5791 237.396 26.2894C238.299 27.0827 238.296 27.9466 237.255 28.5587C236.436 29.0393 235.567 29.4206 234.663 29.6951C232.407 30.3772 230.126 30.9705 227.727 31.635C227.693 32.3748 227.65 33.303 227.606 34.2729C228.594 34.2729 229.555 34.2962 230.515 34.2687C234.14 34.1649 237.764 34.0515 241.388 33.9285C242.213 33.9015 243.037 33.839 243.862 33.8168C245.327 33.7776 245.847 34.4859 245.414 35.9569C244.523 38.9876 243.614 42.0126 242.714 45.0404C242.646 45.2686 242.59 45.5005 242.5 45.8352C244.416 45.6064 245.826 46.5237 247.149 47.7138C247.514 48.0419 248.043 48.1668 248.452 48.4531C248.694 48.6219 249.02 48.9421 249 49.1626C248.972 49.4559 248.668 49.9182 248.436 49.9508C247.902 50.0404 247.355 49.9821 246.85 49.7818C246.301 49.5294 245.849 49.0439 245.37 48.6406C243.825 47.3392 242.772 47.3624 241.323 48.7394C240.888 49.1522 240.467 49.5826 240.013 49.9697C238.727 51.0683 237.168 51.2591 235.743 50.3695C235.001 49.8792 234.319 49.2982 233.711 48.6391C232.917 47.8161 232.376 47.5546 231.362 48.0737C230.495 48.5172 229.693 49.0857 228.98 49.7622C226.251 52.3743 223.269 52.4808 220.429 49.9805C220.107 49.7131 219.801 49.4254 219.514 49.119C218.852 48.3734 218.073 48.2835 217.272 48.7506C216.48 49.2121 215.762 49.8092 214.983 50.2973C213.931 50.9557 212.893 51.6699 211.767 52.1569C211.166 52.4166 210.383 52.3273 209.703 52.2337C209.456 52.1996 209.099 51.6985 209.094 51.4044C209.085 50.9343 209.555 50.981 209.916 50.987C210.943 51.0054 211.797 50.5308 212.577 49.9056C213.807 48.9185 215.017 47.9054 216.363 46.7988ZM218.243 46.5229C219.375 46.4322 220.294 47.1665 221.127 48.0795C221.249 48.2124 221.386 48.3295 221.517 48.4531C223.653 50.4725 225.587 50.4093 227.756 48.4012C228.603 47.6042 229.562 46.945 230.601 46.4463C232.337 45.6409 233.673 46.0742 234.983 47.4864C235.477 48.0053 236.03 48.46 236.63 48.8404C237.294 49.271 237.988 49.1498 238.61 48.661C239.233 48.1721 239.759 47.6488 239.841 46.7555C239.887 46.252 240.107 45.7617 240.276 45.2752C240.802 43.7551 241.371 42.2507 241.866 40.7198C242.404 39.0554 242.878 37.3689 243.389 35.6658C233.715 35.6231 224.135 36.068 214.575 37.3965L218.243 46.5229ZM228.065 19.881L227.81 19.9972V29.4457L235.769 27.2174C233.082 24.6584 230.573 22.2698 228.065 19.8815V19.881Z" fill="white"/>
<path d="M211.076 57.0001C210.561 56.8901 210.016 56.8516 209.543 56.6401C209.296 56.5301 209.177 56.1149 209 55.8374C209.255 55.6822 209.521 55.3772 209.764 55.3953C211.765 55.5449 213.359 54.6656 214.823 53.3887C215.269 52.9892 215.743 52.6249 216.241 52.2988C217.745 51.3456 219.259 51.3995 220.739 52.369C221.105 52.6249 221.456 52.9031 221.791 53.2021C222.688 53.9579 223.769 54.4428 224.915 54.6034C226.169 54.7906 227.271 54.5811 228.19 53.5022C228.864 52.7395 229.635 52.0765 230.483 51.5319C231.65 50.7589 232.889 50.824 234.065 51.6127C234.413 51.8413 234.749 52.0886 235.072 52.3536C235.992 53.1235 237.063 53.5137 238.203 53.7496C238.563 53.8344 238.936 53.8312 239.295 53.7402C239.653 53.6492 239.985 53.4729 240.266 53.2254C242.112 51.6966 244.087 51.3308 246.266 52.5076C246.797 52.7944 247.448 52.8524 248.049 52.9904C248.517 53.098 248.915 53.302 248.958 53.8382C249.004 54.4047 248.653 54.7811 248.166 54.9046C247.712 55.0064 247.244 55.0351 246.781 54.9898C246.456 54.963 246.142 54.8552 245.866 54.6755C244.258 53.5982 242.866 54.0633 241.518 55.2254C241.133 55.56 240.682 55.8039 240.196 55.94C239.711 56.0761 239.202 56.1012 238.706 56.0136C236.918 55.7547 235.293 55.1358 233.891 53.9172C232.669 52.8553 232.134 52.8674 230.868 53.8931C230.587 54.1156 230.332 54.3705 230.106 54.6529C228.655 56.5253 226.727 56.8342 224.598 56.4612C223.196 56.2179 221.878 55.6045 220.771 54.6802C220.495 54.4522 220.215 54.2266 219.922 54.0224C219.23 53.5401 218.487 53.4382 217.754 53.8757C217.118 54.255 216.524 54.7088 215.913 55.1308C214.448 56.1406 212.917 56.9601 211.076 57.0001Z" fill="white"/>
</svg>
